#!OML:ASF F:\VICON\USERDATA\INSTALL\rory3\rory3.ASF
:FULLY-SPECIFIED
:DEGREES
37
root -0.2634657180921128 18.430716018240176 9.680368799552083 5.074156488662679 -2.9923750934769378 1.7412691815546424
lfemur 11.71391810040015 -6.5297008291878225 -29.323051584771065
ltibia 44.7302603729406
lfoot 27.919032338680125 -21.677913701416788
ltoes -8.493825751896193
rfemur -37.51295921045475 0.1986480152539376 24.862240655144127
rtibia 25.808616031514248
rfoot 5.142503796130606 -1.6195238285357876
rtoes -16.353250959108948
lowerback 14.035034961059857 -1.769367937733858 -2.1502441749467778
upperback -1.0557823315375479 -2.6199883958365273 0.9932072581604706
thorax -8.97732057067251 -1.1265657892654954 2.8485891592264783
lowerneck -20.428811340740797 -3.200442797766465 -2.3381668253313697
upperneck 13.43501365015234 -4.21048674072223 2.6496248470935644
head 7.609444937606243 -1.8302820914407163 0.7371619299138858
lclavicle -1.3843789728405465e-15 -1.1378991320907663e-15
lhumerus -37.300319861529154 -15.897375667954528 93.75711369718972
lradius 114.14531298265146
lwrist 35.77215879658792
lhand -24.622702018326727 1.266404123077475
lfingers 7.125020000000056
lthumb 1.875480288894767 31.18043636290615
rclavicle -1.3843789728405465e-15 -1.1378991320907663e-15
rhumerus -65.29280913992237 4.113993032800307 -96.34230694614857
rradius 111.35972980841927
rwrist -15.84901570368504
rhand -20.129187636903644 33.06468411518285
rfingers 7.125020000000056
rthumb 6.213814418843725 11.646680820029268
38
root -0.2562068251076791 18.249468528730027 10.4143444779005 4.395166603296896 -3.308347686453059 1.6257614285047373
lfemur 10.028954955878316 -5.516324976886543 -28.306094761701644
ltibia 52.608334779306404
lfoot 26.830970755516947 -21.091536329126793
ltoes -6.431740962275078
rfemur -36.568016882746385 -0.046819619954279634 25.650809991354663
rtibia 30.034060842592908
rfoot 3.9244635947569635 -0.43701016311882057
rtoes -11.009669817567017
lowerback 14.586424761780762 -1.5458603898673116 -1.9141366182695234
upperback -0.7855880564438344 -2.2871075910387515 1.0081259631826116
thorax -8.952073096388526 -0.9795657419176126 2.6961476670095026
lowerneck -20.207832155043384 -3.259699404786055 -2.388477486006264
upperneck 13.32180865713633 -4.240975253859828 2.5069883955591448
head 7.526736912083784 -1.8703909001301071 0.69437144449533
lclavicle -1.2391630837968897e-15 -1.0254580514055942e-15
lhumerus -38.25307538499596 -15.501497734669655 94.3479079920642
lradius 113.19435668504033
lwrist 36.092660154472185
lhand -25.004297244235325 0.6926024907431412
lfingers 7.125020000000056
lthumb 1.5069772544970135 30.60584175264851
rclavicle -1.2391630837968897e-15 -1.0254580514055942e-15
rhumerus -63.991202901524005 4.036641898715011 -96.38084467038863
rradius 111.11776491544458
rwrist -15.990383135312928
rhand -20.23199856270574 32.994414038421596
rfingers 7.125020000000056
rthumb 6.114410962138828 11.891330340207576
39
root -0.25141289137863954 18.026634932052275 11.18063743355672 3.666287029616817 -3.993842809971617 1.2587629611499076
lfemur 7.62414821352786 -3.8377046295529738 -26.70069299970992
ltibia 61.33974872282677
lfoot 25.47228009109689 -20.015290572520648
ltoes -4.264706268267426
rfemur -35.62051095843152 0.4050966177894111 26.478341198325595
rtibia 35.10829024156338
rfoot 1.1571468296943959 0.6831670542717836
rtoes -4.182226606313864
lowerback 15.208505952403666 -1.2336300484938825 -1.5740606626022864
upperback -0.59053748243559 -1.8041619268506772 1.1032249615006908
thorax -9.089320626963833 -0.7626125295092204 2.4944898886794897
lowerneck -19.995285219677417 -3.2810529012038474 -2.3957266889866404
upperneck 13.276761424104624 -4.226182755382388 2.278663700886567
head 7.463234521266505 -1.8916443223365447 0.6216429527105735
lclavicle -1.2831082857241863e-15 -1.059484952479056e-15
lhumerus -39.44489491938723 -14.874499068009133 94.95607746045326
lradius 111.58194981530262
lwrist 36.19917085284269
lhand -25.3178608768717 -0.06927252186745037
lfingers 7.125020000000056
lthumb 1.204181648654311 29.8450723159703
rclavicle -1.2831082857241863e-15 -1.059484952479056e-15
rhumerus -62.48085792504867 4.255490613175336 -96.7136964256395
rradius 110.5778909737804
rwrist -16.42258640896279
rhand -20.296030587074288 32.70751297921076
rfingers 7.125020000000056
rthumb 6.052433998655378 11.829543953089166
40
root -0.2466461217629523 17.780400502818306 12.046273541171862 3.0602970750502023 -4.62376618040579 0.4913927980416699
lfemur 4.74879497886587 -1.5547598840748267 -24.08840745476225
ltibia 70.70656508367586
lfoot 24.070043166174884 -18.369179584552786
ltoes -2.511002559020599
rfemur -34.352802004193215 1.3674472071067725 27.862102648028454
rtibia 41.1091649367509
rfoot -2.5125428999459594 1.0528172596711851
rtoes 3.498809985091232
lowerback 15.935151845793314 -0.8889188875339399 -0.9546600654254245
upperback -0.41924989657119305 -1.2183851627095046 1.3566198358121597
thorax -9.287932835926958 -0.5033125112986249 2.305718635362096
lowerneck -19.88522077963137 -3.272223802169187 -2.334987077292963
upperneck 13.35238913185364 -4.1839152155968495 2.04021626298584
head 7.457950654007634 -1.898924946733619 0.5359490561125092
lclavicle -1.1260293113411562e-15 -9.378582575748277e-16
lhumerus -40.72691688742651 -14.070593570412138 95.67998810920201
lradius 110.13665826507949
lwrist 36.33905338654876
lhand -25.507551799409296 -0.20522433580052812
lfingers 7.125020000000056
lthumb 1.021010251946074 29.70947452405011
rclavicle -1.1260293113411562e-15 -9.378582575748277e-16
rhumerus -60.21200027344611 4.9530192314837365 -96.93854153341582
rradius 109.91840392985057
rwrist -16.610079153939616
rhand -20.397722514138675 32.69609640065029
rfingers 7.125020000000056
rthumb 5.954285051554374 11.618686406345578
